# xmcd CD database file generated by Grip 3.2.0
# 
# Track frame offsets:
#       150
#       19857
#       43306
#       72772
#       89848
#       106227
#       140106
#       167888
#       200551
#       221251
# 
# Disc length: 3131 seconds
# 
# Revision: 1
# Processed by: cddbd v1.5.2PL0 Copyright (c) Steve Scherf et al.
# Submitted via: Grip 3.2.0
# 
DISCID=980c390a
DTITLE=Kerkko Koskinen - Agatha
DYEAR=2007
DGENRE=Jazz
TTITLE0=Crooked Room
TTITLE1=Helsinki-Vantaa
TTITLE2=Pale Horse
TTITLE3=Passenger to Copenhagen
TTITLE4=Sparkling Arsenic
TTITLE5=Cats and Pigeons
TTITLE6=Elephants Can
TTITLE7=And Then There Was One
TTITLE8=The Pointing Finger
TTITLE9=Riemukaaret (Thriumphal Arches)
EXTD=
EXTT0=
EXTT1=
EXTT2=
EXTT3=
EXTT4=
EXTT5=
EXTT6=
EXTT7=
EXTT8=
EXTT9=
PLAYORDER=
